<?xml version="1.0" encoding="UTF-8" standalone="no"?>
<svg
   xmlns:dc="http://purl.org/dc/elements/1.1/"
   xmlns:cc="http://creativecommons.org/ns#"
   xmlns:rdf="http://www.w3.org/1999/02/22-rdf-syntax-ns#"
   xmlns:svg="http://www.w3.org/2000/svg"
   xmlns="http://www.w3.org/2000/svg"
   xmlns:sodipodi="http://sodipodi.sourceforge.net/DTD/sodipodi-0.dtd"
   xmlns:inkscape="http://www.inkscape.org/namespaces/inkscape"
   version="1.1"
   id="svg2"
   xml:space="preserve"
   width="554.56"
   height="208.14667"
   viewBox="0 0 554.56 208.14667"
   sodipodi:docname="Росинка Логотип!.eps"><metadata
     id="metadata8"><rdf:RDF><cc:Work
         rdf:about=""><dc:format>image/svg+xml</dc:format><dc:type
           rdf:resource="http://purl.org/dc/dcmitype/StillImage" /></cc:Work></rdf:RDF></metadata><defs
     id="defs6"><linearGradient
       x1="0"
       y1="0"
       x2="1"
       y2="0"
       gradientUnits="userSpaceOnUse"
       gradientTransform="matrix(593.261,-31.5474,-31.5474,-593.261,20.052,580.151)"
       spreadMethod="pad"
       id="linearGradient22"><stop
         style="stop-opacity:1;stop-color:#50ade5"
         offset="0"
         id="stop16" /><stop
         style="stop-opacity:1;stop-color:#50ade5"
         offset="0.33342221"
         id="stop18" /><stop
         style="stop-opacity:1;stop-color:#8ad9f8"
         offset="1"
         id="stop20" /></linearGradient><radialGradient
       fx="0"
       fy="0"
       cx="0"
       cy="0"
       r="1"
       gradientUnits="userSpaceOnUse"
       gradientTransform="matrix(1138.52,0,0,-1138.52,771.672,762.451)"
       spreadMethod="pad"
       id="radialGradient32"><stop
         style="stop-opacity:1;stop-color:#4fbe39"
         offset="0"
         id="stop26" /><stop
         style="stop-opacity:1;stop-color:#4fbe39"
         offset="0.35614304"
         id="stop28" /><stop
         style="stop-opacity:1;stop-color:#357f24"
         offset="1"
         id="stop30" /></radialGradient></defs><sodipodi:namedview
     pagecolor="#ffffff"
     bordercolor="#666666"
     borderopacity="1"
     objecttolerance="10"
     gridtolerance="10"
     guidetolerance="10"
     inkscape:pageopacity="0"
     inkscape:pageshadow="2"
     inkscape:window-width="640"
     inkscape:window-height="480"
     id="namedview4" /><g
     id="g10"
     inkscape:groupmode="layer"
     inkscape:label="ink_ext_XXXXXX"
     transform="matrix(1.3333333,0,0,-1.3333333,0,208.14667)"><g
       id="g12"
       transform="scale(0.1)"><path
         d="m 4096.67,615.473 v 0 h 5.84 c 6.78,0 12.3,2.242 12.3,7.668 0,4.797 -3.58,8.007 -11.34,8.007 -3.24,0 -5.49,-0.308 -6.8,-0.644 z m -0.33,-29.446 v 20.817 h 5.82 c 6.79,0 10.05,-2.563 11,-8.008 1.65,-6.41 2.62,-10.887 4.24,-12.809 h 12.94 c -0.97,1.922 -2.29,4.801 -3.9,12.809 -1.61,7.019 -4.2,11.191 -9.37,12.809 v 0.628 c 6.15,1.911 10.98,6.067 10.98,12.481 0,5.117 -2.25,8.949 -5.47,11.191 -3.57,2.555 -8.11,4.172 -18.16,4.172 -8.74,0 -15.53,-0.965 -20.36,-1.617 v -52.473 h 12.28 v 0 z m -32.68,27.203 v 0 c 0,-23.367 17.8,-41.917 41.42,-41.917 22.97,-0.348 40.46,18.55 40.46,41.597 0,23.36 -17.49,42.231 -41.12,42.231 -22.96,0 -40.76,-18.871 -40.76,-41.911 z m 95.49,0 c 0,-29.457 -23.96,-52.8 -54.39,-52.8 -30.43,0 -54.69,23.343 -54.69,52.8 0,29.446 24.26,52.481 55.01,52.481 30.11,0 54.07,-23.035 54.07,-52.481 v 0"
         style="fill:#231f20;fill-opacity:1;fill-rule:evenodd;stroke:none"
         id="path14" /><path
         d="m 647.199,816.113 c 0,0 -86.633,-326.351 -245.136,-465.535 C 60.5195,50.6211 -106.902,680.945 80.0117,796.914 207.938,876.27 376.652,865.602 490.961,848.836 605.27,832.055 647.199,816.113 647.199,816.113"
         style="fill:url(#linearGradient22);fill-opacity:1;fill-rule:evenodd;stroke:none"
         id="path24" /><path
         d="M 65.7344,1210.39 C 225.195,1015.39 441.535,941.473 441.535,941.473 161.672,977.012 0,1149.85 0,1149.85 c 0,0 0,0 65.7344,60.54 z M 874.664,734.375 v 0 C 769.063,781.996 724.52,788.73 724.52,788.73 c 0,0 -140.911,-418.16 -71.68,-652.832 69.242,-234.7066 236.793,-109.6285 267.695,-35.9292 30.906,73.6792 87.725,81.2612 138.915,83.3122 51.2,2.039 202.64,63.309 149.52,228.617 -53.1,165.325 -228.704,274.821 -334.306,322.477 z M 1441.1,1123.69 c 35.69,-37.38 102.28,-191.866 -53.23,-286.674 -155.51,-94.832 -360.45,-59.637 -470.8,-23.985 -110.347,35.641 -147.437,61.364 -147.437,61.364 0,0 193.582,431.865 409.867,570.735 216.27,138.91 249.42,-77.76 219.71,-158.1 -29.72,-80.35 6.18,-126 41.89,-163.34 v 0 z m -618.01,293.98 c -45.094,206.06 -216.18,144.69 -252.231,92.45 -36.066,-52.23 -90.949,-44.86 -139.984,-34.41 -49.035,10.47 -198.992,-3.15 -163.09,-149.36 35.922,-146.21 193.727,-276.32 290.219,-339.846 96.504,-63.508 138.41,-79.52 138.41,-79.52 0,0 171.789,304.606 126.676,510.686 v 0"
         style="fill:url(#radialGradient32);fill-opacity:1;fill-rule:evenodd;stroke:none"
         id="path34" /><path
         d="m 240.379,660.746 c 26.488,25.504 35.629,66.426 12.156,98.488 -22.66,30.961 -97.074,-4.136 -124.012,-32.257 -21.578,-22.497 -34.1363,-50.719 -34.8746,-82.047 -1.0742,-45.703 8.8826,-75.516 49.5276,-67.231 12.09,2.477 85.23,71.52 97.203,83.047"
         style="fill:#ffffff;fill-opacity:1;fill-rule:evenodd;stroke:none"
         id="path36" /><path
         d="m 1953.83,403.609 v 0 c 0,-65.961 32.99,-115.808 84.92,-115.808 49.13,0 83.53,47.719 83.53,117.199 0,53.352 -23.86,115.109 -82.83,115.109 -61.05,0 -85.62,-59.66 -85.62,-116.5 z m 257.58,3.493 c 0,-125.641 -88.42,-181.782 -175.45,-181.782 -96.17,0 -171.28,66 -171.28,176.168 0,112.313 73.7,181.106 176.87,181.106 101.78,0 169.86,-71.606 169.86,-175.492 v 0"
         style="fill:#231f20;fill-opacity:1;fill-rule:evenodd;stroke:none"
         id="path38" /><path
         d="m 2533.55,243.602 c -18.23,-8.454 -54.05,-17.571 -96.85,-17.571 -106.69,0 -176.18,68.789 -176.18,174.778 0,102.472 70.19,181.785 190.2,181.785 31.59,0 63.89,-7.024 83.54,-15.457 l -15.43,-65.266 c -14.06,7.008 -34.41,13.328 -65.28,13.328 -65.99,0 -105.29,-48.418 -104.61,-110.898 0,-70.18 45.63,-110.192 104.61,-110.192 29.47,0 51.22,6.321 68.06,13.321 l 11.94,-63.828"
         style="fill:#231f20;fill-opacity:1;fill-rule:evenodd;stroke:none"
         id="path40" /><path
         d="M 3088.69,574.871 V 444.309 h 131.95 v 130.562 h 86.34 V 233.059 h -86.34 V 376.941 H 3088.69 V 233.059 h -86.32 v 341.812 h 86.32"
         style="fill:#231f20;fill-opacity:1;fill-rule:evenodd;stroke:none"
         id="path42" /><path
         d="m 3942.84,400.09 v 0 c -61.06,0.719 -119.33,-11.918 -119.33,-63.879 0,-33.691 21.77,-49.102 49.14,-49.102 35.1,0 59.68,22.442 68.09,47.012 2.1,6.301 2.1,12.649 2.1,18.969 z m 77.38,-84.918 c 0,-30.891 8.24,-61.07 12.47,-82.113 h -77.91 l -6.34,37.902 h -2.1 C 3926,244.289 3890.2,225.32 3845.28,225.32 c -68.78,0 -107.37,49.84 -107.37,101.782 0,85.617 76.48,129.839 202.83,129.136 v 5.621 c 0,22.45 -15.05,59.25 -69.48,59.68 -33.71,0.25 -62.64,-11.641 -85.78,-26.379 l -23.02,57.231 c 25.28,15.461 69.48,30.203 123.53,30.203 109.49,0 134.23,-69.492 134.23,-144.606 v -122.816 0"
         style="fill:#231f20;fill-opacity:1;fill-rule:evenodd;stroke:none"
         id="path44" /><path
         d="m 3569.47,424.672 c 0,0 54.38,17.297 136.18,150.199 0.2,0.344 0.28,0.719 0.43,1.09 h -101.46 c -0.95,-0.711 -1.47,-1.09 -1.47,-1.09 -7.34,-20.32 -23.17,-50.109 -28.76,-57.449 -19.77,-25.973 -42.84,-58.723 -89.16,-84.332 0.04,13.39 0.27,139.062 -0.26,141.742 -5.5,0.039 -86.04,0.039 -86.04,0.039 V 233.059 h 86.33 v 142.48 h 11.2 c 44.23,0 70.2,-22.449 89.14,-69.488 12.65,-32.981 22.47,-58.262 31.59,-72.992 h 89.84 c -16.12,30.171 -28.07,67.371 -38.62,93.32 -23.16,54.762 -51.93,91.269 -98.94,98.293"
         style="fill:#231f20;fill-opacity:1;fill-rule:evenodd;stroke:none"
         id="path46" /><path
         d="m 1648.44,287.25 v 0 c -10.64,-0.648 -21.42,0.289 -31.86,1.699 -3.95,0.551 -34.55,6.301 -34.42,11.223 0.22,8.976 0.29,17.93 0.32,27.047 0.11,49.562 -1,99.09 -3.24,148.59 0.16,0.269 0.31,0.511 0.47,0.8 -0.51,9.5 -0.94,19.012 -1.58,28.551 -0.36,5.602 32.53,13.211 36.89,13.969 33.37,5.801 69.02,0.961 91.01,-27.117 19.62,-20.282 31.02,-49.973 31.02,-85.582 0,-35.86 -10.18,-63.039 -26,-82.25 -11.5,-13.961 -21.67,-26.27 -39.45,-32.5 -7.49,-2.621 -15.27,-3.969 -23.16,-4.43 z m 2.77,295.344 c -28.39,0 -54.41,-5.395 -77.38,-15.332 -0.36,4.785 -0.62,9.578 -1,14.363 -28.68,-2.242 -57.35,-4.512 -86.04,-6.754 12.6,-160.019 12.6,-320.769 0,-480.8007 28.69,-2.2305 57.36,-4.4922 86.04,-6.75 3.91,49.6487 6.49,99.3707 8.04,149.1097 19.88,-7.289 41.68,-11.11 64.71,-11.11 87.04,0 175.47,56.141 175.47,181.782 0,103.886 -68.08,175.492 -169.84,175.492 v 0"
         style="fill:#231f20;fill-opacity:1;fill-rule:evenodd;stroke:none"
         id="path48" /><path
         d="m 2806.56,574.871 c 0,0 -104.38,-206.781 -127.72,-256.551 V 574.871 H 2596.7 V 233.059 h 103.2 c 28.08,53.519 107.15,210.242 129.06,260.082 v -191.36 h 0.06 v -68.722 h 82.13 v 341.812 h -104.59"
         style="fill:#231f20;fill-opacity:1;fill-rule:evenodd;stroke:none"
         id="path50" /></g></g></svg>
